Inverse Dynamics Generalized Forces																																												
version=1																																												
nRows=7																																												
nColumns=45																																												
inDegrees=no																																												
endheader																																												
time	pelvis_tilt_moment	pelvis_list_moment	pelvis_rotation_moment	pelvis_tx_force	pelvis_ty_force	pelvis_tz_force	hip_flexion_r_moment	hip_adduction_r_moment	hip_rotation_r_moment	hip_flexion_l_moment	hip_adduction_l_moment	hip_rotation_l_moment	lumbar_extension_moment	lumbar_bending_moment	lumbar_rotation_moment	knee_angle_r_moment	knee_adduction_r_moment	knee_angle_r_beta_force	knee_angle_l_moment	knee_adduction_l_moment	knee_angle_l_beta_force	thoracic_extension_moment	thoracic_bending_moment	thoracic_rotation_moment	ankle_angle_r_moment	ankle_angle_l_moment	arm_flex_r_moment	arm_add_r_moment	arm_rot_r_moment	arm_flex_l_moment	arm_add_l_moment	arm_rot_l_moment	subtalar_angle_r_moment	subtalar_angle_l_moment	elbow_flex_r_moment	elbow_flex_l_moment	mtp_angle_r_moment	mtp_angle_l_moment	pro_sup_r_moment	pro_sup_l_moment	wrist_flex_r_moment	wrist_dev_r_moment	wrist_flex_l_moment	wrist_dev_l_moment
0.266071429	-0.034916367	-0.04571857	0.02969299	0.946572652	1.031259627	-0.900455597	5.181664488	-73.82315107	13.3160787	14.10501548	-6.866409389	-0.395655295	-6.188871435	6.827311415	0.413988241	-44.07521759	-42.23845933	-0.036301242	-13.11888775	0.314070663	-0.005351671	0.305305093	5.790709524	0.315347659	-74.12532023	1.193857209	-1.236610178	-2.339047952	-0.293717666	2.040894776	-2.495209489	-0.569482113	13.36030161	-0.306773735	0.378512581	1.785461499	7.029283788	-0.110074907	-0.019738979	-0.064299883	-0.026967805	-0.047719548	-0.021659039	-0.235144933
0.276714286	-0.021998328	-0.02684981	0.040649306	0.968846827	1.227140806	-0.921095771	4.811792849	-71.71217305	12.23292558	13.67092176	-7.46311942	-0.526354828	-5.798774445	6.238072714	-0.372126117	-39.79899311	-40.60215196	-0.031684877	-10.98296467	0.41424813	-0.004764224	1.004818643	4.960612783	-0.542162848	-74.57586397	0.814236092	-0.72086778	-2.537372032	-0.347613273	2.424679858	-2.373669603	-0.59915118	13.13303437	-0.100076229	0.528858518	1.785257428	8.007914685	-0.054577293	-0.026159428	-0.068620509	-0.034628001	-0.072070834	-0.033241721	-0.24038863
0.287357143	-0.019218191	0.000726463	0.059751371	0.948071198	1.151375618	-0.930066793	3.127736858	-70.00387086	11.48208531	13.44273474	-7.647640126	-0.61361919	-4.181466382	5.486403545	-0.847362187	-36.43248118	-39.24927835	-0.02648617	-8.414603356	0.470128505	-0.004321413	2.827789391	4.052047789	-1.089532536	-73.50452501	0.677106441	-0.040063443	-2.634535706	-0.379875312	2.812061805	-2.336409576	-0.648427961	12.80770462	0.012833865	0.749648796	1.778972622	9.056965035	-0.024972012	-0.032402787	-0.074039461	-0.036014791	-0.103288406	-0.048976443	-0.244662777
0.298	-0.035680613	0.008481008	0.076889075	0.857321874	1.041784598	-0.930106295	1.549101777	-68.04281142	10.8812159	13.00405105	-7.477022312	-0.538488145	-2.2034108	4.696996871	-1.14901586	-33.87238189	-37.87634498	-0.02129981	-6.04082683	0.380281051	-0.003365216	5.20551156	3.138526585	-1.45125442	-71.16406833	0.757951239	0.778567934	-2.633971233	-0.399390001	3.24970174	-2.341653326	-0.703078175	12.34830722	0.010231127	1.021880937	1.781883353	9.88705224	-0.019314848	-0.039040816	-0.079725297	-0.033225282	-0.139269567	-0.066105059	-0.249356122
0.308642857	-0.067678232	-0.011733385	0.085945122	0.70967712	1.024586932	-0.925603408	0.858224661	-65.42083336	10.28243319	12.15195505	-7.060967523	-0.261520942	-0.467856241	3.939927487	-1.390331938	-31.82009184	-36.30117237	-0.016822663	-4.186376221	0.106218853	-0.001644646	7.595996381	2.325099979	-1.721447785	-67.99037057	1.003574603	1.678209201	-2.533192725	-0.411001508	3.704971983	-2.379723674	-0.751119903	11.75026335	-0.099661565	1.321813501	1.78401217	10.34952729	-0.032478428	-0.046178642	-0.084458242	-0.027718979	-0.177384769	-0.082585236	-0.252907855
0.319285714	-0.093120357	-0.038818767	0.086531308	0.575612308	1.065870604	-0.923316916	0.923058229	-62.08457316	9.587294808	10.989854	-6.584723223	0.142624637	0.799622835	3.206901298	-1.650045521	-29.69677631	-34.51564844	-0.013898217	-2.742263461	-0.300230051	0.000507249	9.49558999	1.762072171	-1.950650173	-64.68204613	1.319630765	2.55959711	-2.321222639	-0.413754256	4.031477301	-2.487000542	-0.783803017	11.05408626	-0.265650019	1.618905351	1.739146325	10.49767278	-0.054768023	-0.053251845	-0.08646132	-0.020040521	-0.214248513	-0.097401724	-0.249524992
0.329928571	-0.088616659	-0.049506663	0.078726175	0.529521892	1.119417237	-0.930131726	1.541185493	-58.01030467	8.701767228	9.644590561	-6.238624937	0.590613404	1.40398007	2.483929761	-2.003856037	-26.90524628	-32.52591516	-0.013375822	-1.566045247	-0.780277869	0.002712584	10.40632733	1.602629649	-2.18585368	-61.9560632	1.608857098	3.320365733	-1.986487821	-0.406203362	4.074775737	-2.703156247	-0.792678694	10.30384617	-0.433340623	1.882149767	1.598537682	10.40045729	-0.076158235	-0.05964147	-0.083925404	-0.010655817	-0.246420609	-0.109622781	-0.233120697
